<svg xmlns="http://www.w3.org/2000/svg" width="600" height="400" style="background:#1a1a2e;">
<line x1="300.0" y1="100.0" x2="190.5" y2="222.7" stroke="#888" stroke-opacity="0.15" stroke-width="1"/>
<line x1="300.0" y1="100.0" x2="436.5" y2="121.2" stroke="#888" stroke-opacity="0.15" stroke-width="1"/>
<line x1="300.0" y1="100.0" x2="221.8" y2="137.7" stroke="#888" stroke-opacity="0.35" stroke-width="1"/>
<line x1="300.0" y1="100.0" x2="378.2" y2="137.7" stroke="#888" stroke-opacity="0.35" stroke-width="1"/>
<line x1="300.0" y1="100.0" x2="190.5" y2="2.7" stroke="#888" stroke-opacity="0.15" stroke-width="1"/>
<line x1="300.0" y1="100.0" x2="239.3" y2="436.1" stroke="#888" stroke-opacity="0.15" stroke-width="1"/>
<line x1="300.0" y1="100.0" x2="397.5" y2="222.3" stroke="#888" stroke-opacity="0.35" stroke-width="1"/>
<line x1="300.0" y1="100.0" x2="202.5" y2="222.3" stroke="#888" stroke-opacity="0.35" stroke-width="1"/>
<line x1="300.0" y1="-50.0" x2="190.5" y2="222.7" stroke="#888" stroke-opacity="0.15" stroke-width="1"/>
<line x1="300.0" y1="-50.0" x2="163.5" y2="121.2" stroke="#888" stroke-opacity="0.35" stroke-width="1"/>
<line x1="300.0" y1="-50.0" x2="256.6" y2="290.1" stroke="#888" stroke-opacity="0.15" stroke-width="1"/>
<line x1="300.0" y1="-50.0" x2="436.5" y2="121.2" stroke="#888" stroke-opacity="0.35" stroke-width="1"/>
<line x1="300.0" y1="-50.0" x2="221.8" y2="137.7" stroke="#888" stroke-opacity="0.15" stroke-width="1"/>
<line x1="300.0" y1="-50.0" x2="436.5" y2="341.2" stroke="#888" stroke-opacity="0.15" stroke-width="1"/>
<line x1="300.0" y1="-50.0" x2="190.5" y2="2.7" stroke="#888" stroke-opacity="0.35" stroke-width="1"/>
<line x1="300.0" y1="-50.0" x2="409.5" y2="2.7" stroke="#888" stroke-opacity="0.35" stroke-width="1"/>
<line x1="300.0" y1="170.0" x2="190.5" y2="222.7" stroke="#888" stroke-opacity="0.35" stroke-width="1"/>
<line x1="300.0" y1="170.0" x2="409.5" y2="222.7" stroke="#888" stroke-opacity="0.35" stroke-width="1"/>
<line x1="300.0" y1="170.0" x2="221.8" y2="137.7" stroke="#888" stroke-opacity="0.15" stroke-width="1"/>
<line x1="300.0" y1="170.0" x2="239.3" y2="216.1" stroke="#888" stroke-opacity="0.15" stroke-width="1"/>
<line x1="300.0" y1="170.0" x2="163.5" y2="341.2" stroke="#888" stroke-opacity="0.35" stroke-width="1"/>
<line x1="300.0" y1="170.0" x2="436.5" y2="341.2" stroke="#888" stroke-opacity="0.35" stroke-width="1"/>
<line x1="300.0" y1="170.0" x2="190.5" y2="2.7" stroke="#888" stroke-opacity="0.15" stroke-width="1"/>
<line x1="300.0" y1="170.0" x2="397.5" y2="222.3" stroke="#888" stroke-opacity="0.15" stroke-width="1"/>
<line x1="190.5" y1="222.7" x2="409.5" y2="222.7" stroke="#888" stroke-opacity="0.35" stroke-width="1"/>
<line x1="190.5" y1="222.7" x2="256.6" y2="290.1" stroke="#888" stroke-opacity="0.15" stroke-width="1"/>
<line x1="190.5" y1="222.7" x2="436.5" y2="121.2" stroke="#888" stroke-opacity="0.15" stroke-width="1"/>
<line x1="190.5" y1="222.7" x2="163.5" y2="341.2" stroke="#888" stroke-opacity="0.35" stroke-width="1"/>
<line x1="190.5" y1="222.7" x2="239.3" y2="436.1" stroke="#888" stroke-opacity="0.35" stroke-width="1"/>
<line x1="409.5" y1="222.7" x2="256.6" y2="290.1" stroke="#888" stroke-opacity="0.15" stroke-width="1"/>
<line x1="409.5" y1="222.7" x2="378.2" y2="137.7" stroke="#888" stroke-opacity="0.15" stroke-width="1"/>
<line x1="409.5" y1="222.7" x2="436.5" y2="341.2" stroke="#888" stroke-opacity="0.35" stroke-width="1"/>
<line x1="409.5" y1="222.7" x2="360.7" y2="216.1" stroke="#888" stroke-opacity="0.15" stroke-width="1"/>
<line x1="409.5" y1="222.7" x2="360.7" y2="436.1" stroke="#888" stroke-opacity="0.35" stroke-width="1"/>
<line x1="409.5" y1="222.7" x2="409.5" y2="2.7" stroke="#888" stroke-opacity="0.15" stroke-width="1"/>
<line x1="163.5" y1="121.2" x2="343.4" y2="290.1" stroke="#888" stroke-opacity="0.15" stroke-width="1"/>
<line x1="163.5" y1="121.2" x2="239.3" y2="216.1" stroke="#888" stroke-opacity="0.35" stroke-width="1"/>
<line x1="163.5" y1="121.2" x2="163.5" y2="341.2" stroke="#888" stroke-opacity="0.15" stroke-width="1"/>
<line x1="163.5" y1="121.2" x2="436.5" y2="341.2" stroke="#888" stroke-opacity="0.15" stroke-width="1"/>
<line x1="163.5" y1="121.2" x2="360.7" y2="216.1" stroke="#888" stroke-opacity="0.35" stroke-width="1"/>
<line x1="163.5" y1="121.2" x2="190.5" y2="2.7" stroke="#888" stroke-opacity="0.35" stroke-width="1"/>
<line x1="163.5" y1="121.2" x2="202.5" y2="222.3" stroke="#888" stroke-opacity="0.15" stroke-width="1"/>
<line x1="343.4" y1="290.1" x2="256.6" y2="290.1" stroke="#888" stroke-opacity="0.35" stroke-width="1"/>
<line x1="343.4" y1="290.1" x2="378.2" y2="137.7" stroke="#888" stroke-opacity="0.35" stroke-width="1"/>
<line x1="343.4" y1="290.1" x2="436.5" y2="341.2" stroke="#888" stroke-opacity="0.15" stroke-width="1"/>
<line x1="343.4" y1="290.1" x2="239.3" y2="436.1" stroke="#888" stroke-opacity="0.15" stroke-width="1"/>
<line x1="343.4" y1="290.1" x2="409.5" y2="2.7" stroke="#888" stroke-opacity="0.15" stroke-width="1"/>
<line x1="343.4" y1="290.1" x2="397.5" y2="222.3" stroke="#888" stroke-opacity="0.35" stroke-width="1"/>
<line x1="343.4" y1="290.1" x2="202.5" y2="222.3" stroke="#888" stroke-opacity="0.35" stroke-width="1"/>
<line x1="256.6" y1="290.1" x2="221.8" y2="137.7" stroke="#888" stroke-opacity="0.35" stroke-width="1"/>
<line x1="256.6" y1="290.1" x2="360.7" y2="216.1" stroke="#888" stroke-opacity="0.15" stroke-width="1"/>
<line x1="256.6" y1="290.1" x2="397.5" y2="222.3" stroke="#888" stroke-opacity="0.35" stroke-width="1"/>
<line x1="256.6" y1="290.1" x2="202.5" y2="222.3" stroke="#888" stroke-opacity="0.35" stroke-width="1"/>
<line x1="436.5" y1="121.2" x2="239.3" y2="216.1" stroke="#888" stroke-opacity="0.35" stroke-width="1"/>
<line x1="436.5" y1="121.2" x2="360.7" y2="216.1" stroke="#888" stroke-opacity="0.35" stroke-width="1"/>
<line x1="436.5" y1="121.2" x2="360.7" y2="436.1" stroke="#888" stroke-opacity="0.15" stroke-width="1"/>
<line x1="436.5" y1="121.2" x2="409.5" y2="2.7" stroke="#888" stroke-opacity="0.35" stroke-width="1"/>
<line x1="436.5" y1="121.2" x2="202.5" y2="222.3" stroke="#888" stroke-opacity="0.15" stroke-width="1"/>
<line x1="221.8" y1="137.7" x2="378.2" y2="137.7" stroke="#888" stroke-opacity="0.35" stroke-width="1"/>
<line x1="221.8" y1="137.7" x2="239.3" y2="216.1" stroke="#888" stroke-opacity="0.15" stroke-width="1"/>
<line x1="221.8" y1="137.7" x2="436.5" y2="341.2" stroke="#888" stroke-opacity="0.15" stroke-width="1"/>
<line x1="221.8" y1="137.7" x2="202.5" y2="222.3" stroke="#888" stroke-opacity="0.35" stroke-width="1"/>
<line x1="378.2" y1="137.7" x2="239.3" y2="216.1" stroke="#888" stroke-opacity="0.15" stroke-width="1"/>
<line x1="378.2" y1="137.7" x2="360.7" y2="436.1" stroke="#888" stroke-opacity="0.15" stroke-width="1"/>
<line x1="378.2" y1="137.7" x2="409.5" y2="2.7" stroke="#888" stroke-opacity="0.15" stroke-width="1"/>
<line x1="378.2" y1="137.7" x2="397.5" y2="222.3" stroke="#888" stroke-opacity="0.35" stroke-width="1"/>
<line x1="239.3" y1="216.1" x2="360.7" y2="216.1" stroke="#888" stroke-opacity="0.35" stroke-width="1"/>
<line x1="239.3" y1="216.1" x2="190.5" y2="2.7" stroke="#888" stroke-opacity="0.35" stroke-width="1"/>
<line x1="239.3" y1="216.1" x2="360.7" y2="436.1" stroke="#888" stroke-opacity="0.15" stroke-width="1"/>
<line x1="163.5" y1="341.2" x2="360.7" y2="216.1" stroke="#888" stroke-opacity="0.15" stroke-width="1"/>
<line x1="163.5" y1="341.2" x2="239.3" y2="436.1" stroke="#888" stroke-opacity="0.35" stroke-width="1"/>
<line x1="163.5" y1="341.2" x2="360.7" y2="436.1" stroke="#888" stroke-opacity="0.35" stroke-width="1"/>
<line x1="163.5" y1="341.2" x2="397.5" y2="222.3" stroke="#888" stroke-opacity="0.15" stroke-width="1"/>
<line x1="163.5" y1="341.2" x2="202.5" y2="222.3" stroke="#888" stroke-opacity="0.15" stroke-width="1"/>
<line x1="436.5" y1="341.2" x2="239.3" y2="436.1" stroke="#888" stroke-opacity="0.35" stroke-width="1"/>
<line x1="436.5" y1="341.2" x2="360.7" y2="436.1" stroke="#888" stroke-opacity="0.35" stroke-width="1"/>
<line x1="360.7" y1="216.1" x2="409.5" y2="2.7" stroke="#888" stroke-opacity="0.35" stroke-width="1"/>
<line x1="360.7" y1="216.1" x2="397.5" y2="222.3" stroke="#888" stroke-opacity="0.15" stroke-width="1"/>
<line x1="190.5" y1="2.7" x2="239.3" y2="436.1" stroke="#888" stroke-opacity="0.15" stroke-width="1"/>
<line x1="190.5" y1="2.7" x2="409.5" y2="2.7" stroke="#888" stroke-opacity="0.35" stroke-width="1"/>
<line x1="190.5" y1="2.7" x2="397.5" y2="222.3" stroke="#888" stroke-opacity="0.15" stroke-width="1"/>
<line x1="239.3" y1="436.1" x2="360.7" y2="436.1" stroke="#888" stroke-opacity="0.35" stroke-width="1"/>
<line x1="239.3" y1="436.1" x2="409.5" y2="2.7" stroke="#888" stroke-opacity="0.15" stroke-width="1"/>
<line x1="360.7" y1="436.1" x2="202.5" y2="222.3" stroke="#888" stroke-opacity="0.15" stroke-width="1"/>
<polygon points="300.0,100.0 378.2,137.7 397.5,222.3 343.4,290.1 256.6,290.1 202.5,222.3 221.8,137.7" fill="none" stroke="#555" stroke-opacity="0.2" stroke-width="1"/>
<polygon points="300.0,-50.0 409.5,2.7 436.5,121.2 360.7,216.1 239.3,216.1 163.5,121.2 190.5,2.7" fill="none" stroke="#555" stroke-opacity="0.2" stroke-width="1"/>
<polygon points="300.0,170.0 409.5,222.7 436.5,341.2 360.7,436.1 239.3,436.1 163.5,341.2 190.5,222.7" fill="none" stroke="#555" stroke-opacity="0.2" stroke-width="1"/>
<circle cx="300.0" cy="100.0" r="12" fill="#EF9F27" opacity="0.85"/>
<text x="300.0" y="101.0" text-anchor="middle" dominant-baseline="middle" fill="white" font-family="monospace" font-weight="bold" font-size="11">0</text>
<circle cx="300.0" cy="-50.0" r="12" fill="#EF9F27" opacity="0.85"/>
<text x="300.0" y="-49.0" text-anchor="middle" dominant-baseline="middle" fill="white" font-family="monospace" font-weight="bold" font-size="11">1</text>
<circle cx="300.0" cy="170.0" r="12" fill="#D85A30" opacity="0.85"/>
<text x="300.0" y="171.0" text-anchor="middle" dominant-baseline="middle" fill="white" font-family="monospace" font-weight="bold" font-size="11">2</text>
<circle cx="190.5" cy="222.7" r="12" fill="#1D9E75" opacity="0.85"/>
<text x="190.5" y="223.7" text-anchor="middle" dominant-baseline="middle" fill="white" font-family="monospace" font-weight="bold" font-size="11">3</text>
<circle cx="409.5" cy="222.7" r="12" fill="#EF9F27" opacity="0.85"/>
<text x="409.5" y="223.7" text-anchor="middle" dominant-baseline="middle" fill="white" font-family="monospace" font-weight="bold" font-size="11">4</text>
<circle cx="163.5" cy="121.2" r="12" fill="#1D9E75" opacity="0.85"/>
<text x="163.5" y="122.2" text-anchor="middle" dominant-baseline="middle" fill="white" font-family="monospace" font-weight="bold" font-size="11">5</text>
<circle cx="343.4" cy="290.1" r="12" fill="#EF9F27" opacity="0.85"/>
<text x="343.4" y="291.1" text-anchor="middle" dominant-baseline="middle" fill="white" font-family="monospace" font-weight="bold" font-size="11">6</text>
<circle cx="256.6" cy="290.1" r="12" fill="#D85A30" opacity="0.85"/>
<text x="256.6" y="291.1" text-anchor="middle" dominant-baseline="middle" fill="white" font-family="monospace" font-weight="bold" font-size="11">7</text>
<circle cx="436.5" cy="121.2" r="12" fill="#D85A30" opacity="0.85"/>
<text x="436.5" y="122.2" text-anchor="middle" dominant-baseline="middle" fill="white" font-family="monospace" font-weight="bold" font-size="11">8</text>
<circle cx="221.8" cy="137.7" r="12" fill="#1D9E75" opacity="0.85"/>
<text x="221.8" y="138.7" text-anchor="middle" dominant-baseline="middle" fill="white" font-family="monospace" font-weight="bold" font-size="11">9</text>
<circle cx="378.2" cy="137.7" r="12" fill="#D85A30" opacity="0.85"/>
<text x="378.2" y="138.7" text-anchor="middle" dominant-baseline="middle" fill="white" font-family="monospace" font-weight="bold" font-size="11">10</text>
<circle cx="239.3" cy="216.1" r="12" fill="#EF9F27" opacity="0.85"/>
<text x="239.3" y="217.1" text-anchor="middle" dominant-baseline="middle" fill="white" font-family="monospace" font-weight="bold" font-size="11">11</text>
<circle cx="163.5" cy="341.2" r="12" fill="#EF9F27" opacity="0.85"/>
<text x="163.5" y="342.2" text-anchor="middle" dominant-baseline="middle" fill="white" font-family="monospace" font-weight="bold" font-size="11">12</text>
<circle cx="436.5" cy="341.2" r="12" fill="#378ADD" opacity="0.85"/>
<text x="436.5" y="342.2" text-anchor="middle" dominant-baseline="middle" fill="white" font-family="monospace" font-weight="bold" font-size="11">13</text>
<circle cx="360.7" cy="216.1" r="12" fill="#378ADD" opacity="0.85"/>
<text x="360.7" y="217.1" text-anchor="middle" dominant-baseline="middle" fill="white" font-family="monospace" font-weight="bold" font-size="11">14</text>
<circle cx="190.5" cy="2.7" r="12" fill="#378ADD" opacity="0.85"/>
<text x="190.5" y="3.7" text-anchor="middle" dominant-baseline="middle" fill="white" font-family="monospace" font-weight="bold" font-size="11">15</text>
<circle cx="239.3" cy="436.1" r="12" fill="#D85A30" opacity="0.85"/>
<text x="239.3" y="437.1" text-anchor="middle" dominant-baseline="middle" fill="white" font-family="monospace" font-weight="bold" font-size="11">16</text>
<circle cx="360.7" cy="436.1" r="12" fill="#1D9E75" opacity="0.85"/>
<text x="360.7" y="437.1" text-anchor="middle" dominant-baseline="middle" fill="white" font-family="monospace" font-weight="bold" font-size="11">17</text>
<circle cx="409.5" cy="2.7" r="12" fill="#1D9E75" opacity="0.85"/>
<text x="409.5" y="3.7" text-anchor="middle" dominant-baseline="middle" fill="white" font-family="monospace" font-weight="bold" font-size="11">18</text>
<circle cx="397.5" cy="222.3" r="12" fill="#1D9E75" opacity="0.85"/>
<text x="397.5" y="223.3" text-anchor="middle" dominant-baseline="middle" fill="white" font-family="monospace" font-weight="bold" font-size="11">19</text>
<circle cx="202.5" cy="222.3" r="12" fill="#378ADD" opacity="0.85"/>
<text x="202.5" y="223.3" text-anchor="middle" dominant-baseline="middle" fill="white" font-family="monospace" font-weight="bold" font-size="11">20</text>
<text x="300" y="25" text-anchor="middle" fill="#aaa" font-family="sans-serif" font-size="13">Ring 1 (coset of Z₃)</text>
<text x="300" y="200" text-anchor="middle" fill="#aaa" font-family="sans-serif" font-size="13">Ring 0 (Z₇ kernel)</text>
<text x="300" y="385" text-anchor="middle" fill="#aaa" font-family="sans-serif" font-size="13">Ring 2 (coset of Z₃)</text>
</svg>